<svg xmlns="http://www.w3.org/2000/svg" xmlns:xlink="http://www.w3.org/1999/xlink" width="437" height="445" viewBox="0 0 437 445"><defs><style>.a,.c,.g{fill:#fff;}.a,.f,.h{stroke:#707070;}.b{clip-path:url(#a);}.d,.e,.f,.h,.m{fill:none;}.d{stroke:#9bb9be;}.d,.e{stroke-width:20px;opacity:0.33;}.e{stroke:#585555;stroke-dasharray:5;}.f{stroke-width:10px;}.h{stroke-width:5px;}.i,.j{fill:#f57575;}.j{font-size:30px;}.j,.k{font-family:Meiryo;}.k{fill:#585555;font-size:15px;}.l,.n{stroke:none;}.n{fill:#707070;}</style><clipPath id="a"><rect class="a" width="437" height="445" transform="translate(127 6988)"/></clipPath></defs><g class="b" transform="translate(-127 -6988)"><path class="c" d="M0,0H437V445H0Z" transform="translate(127 6988)"/><line class="d" x2="1" y2="445" transform="translate(196.5 6988.5)"/><line class="e" x2="1" y2="445" transform="translate(247.5 6988.5)"/><g class="a" transform="translate(231 7165)"><rect class="l" width="35" height="87"/><rect class="m" x="0.5" y="0.5" width="34" height="86"/></g><path class="f" d="M122,7133s19-59,104.452-80.686C289.767,7036.68,392.212,7040.045,564,7038" transform="translate(0 -2)"/><g class="g" transform="translate(391 7053) rotate(180)"><path class="l" d="M 33.09432601928711 26.5 L 0.9056744575500488 26.5 L 17 0.9384241104125977 L 33.09432601928711 26.5 Z"/><path class="n" d="M 17 1.876821517944336 L 1.811332702636719 26 L 32.18866729736328 26 L 17 1.876821517944336 M 17 0 L 34 27 L 0 27 L 17 0 Z"/></g><path class="h" d="M266,7211H563"/><path class="h" d="M266,7211H541" transform="translate(22 -121)"/><path class="h" d="M288,6988.5v445"/><path class="h" d="M288,6988.5v445" transform="translate(149)"/><path class="h" d="M288,7301s127-26,276,61"/><g class="a" transform="translate(448 7049)"><rect class="l" width="35" height="35"/><rect class="m" x="0.5" y="0.5" width="34" height="34"/></g><g class="a" transform="translate(374 7165)"><rect class="l" width="57" height="38"/><rect class="m" x="0.5" y="0.5" width="56" height="37"/></g><rect class="i" width="35" height="25" transform="translate(448 7281)"/><text class="j" transform="translate(451 7272)"><tspan x="0" y="0">↓</tspan></text><g class="a" transform="translate(415 7316)"><rect class="l" width="16" height="18"/><rect class="m" x="0.5" y="0.5" width="15" height="17"/></g><text class="k" transform="translate(241 7211)"><tspan x="0" y="0">駅</tspan></text></g></svg>